<svg class="rich-terminal" viewBox="0 0 1238 782.0" xmlns="http://www.w3.org/2000/svg">
    <!-- Generated with Rich https://www.textualize.io -->
    <style>

    @font-face {
        font-family: "Fira Code";
        src: local("FiraCode-Regular"),
                url("https://cdnjs.cloudflare.com/ajax/libs/firacode/6.2.0/woff2/FiraCode-Regular.woff2") format("woff2"),
                url("https://cdnjs.cloudflare.com/ajax/libs/firacode/6.2.0/woff/FiraCode-Regular.woff") format("woff");
        font-style: normal;
        font-weight: 400;
    }
    @font-face {
        font-family: "Fira Code";
        src: local("FiraCode-Bold"),
                url("https://cdnjs.cloudflare.com/ajax/libs/firacode/6.2.0/woff2/FiraCode-Bold.woff2") format("woff2"),
                url("https://cdnjs.cloudflare.com/ajax/libs/firacode/6.2.0/woff/FiraCode-Bold.woff") format("woff");
        font-style: bold;
        font-weight: 700;
    }

    .terminal-1147005775-matrix {
        font-family: Fira Code, monospace;
        font-size: 20px;
        line-height: 24.4px;
        font-variant-east-asian: full-width;
    }

    .terminal-1147005775-title {
        font-size: 18px;
        font-weight: bold;
        font-family: arial;
    }

    .terminal-1147005775-r1 { fill: #0065be }
.terminal-1147005775-r2 { fill: #c5c8c6 }
.terminal-1147005775-r3 { fill: #a8a8a8;font-weight: bold }
.terminal-1147005775-r4 { fill: #98e024;font-weight: bold }
.terminal-1147005775-r5 { fill: #e3e3e3 }
.terminal-1147005775-r6 { fill: #a5a5a5 }
.terminal-1147005775-r7 { fill: #fd971f;font-weight: bold }
.terminal-1147005775-r8 { fill: #e0e0e0 }
.terminal-1147005775-r9 { fill: #a1a1a1 }
.terminal-1147005775-r10 { fill: #f4005f }
.terminal-1147005775-r11 { fill: #58d1eb;font-weight: bold }
.terminal-1147005775-r12 { fill: #f4005f;font-weight: bold }
.terminal-1147005775-r13 { fill: #a0a0a0 }
.terminal-1147005775-r14 { fill: #ffa62b;font-weight: bold }
    </style>

    <defs>
    <clipPath id="terminal-1147005775-clip-terminal">
      <rect x="0" y="0" width="1219.0" height="731.0" />
    </clipPath>
    <clipPath id="terminal-1147005775-line-0">
    <rect x="0" y="1.5" width="1220" height="24.65"/>
            </clipPath>
<clipPath id="terminal-1147005775-line-1">
    <rect x="0" y="25.9" width="1220" height="24.65"/>
            </clipPath>
<clipPath id="terminal-1147005775-line-2">
    <rect x="0" y="50.3" width="1220" height="24.65"/>
            </clipPath>
<clipPath id="terminal-1147005775-line-3">
    <rect x="0" y="74.7" width="1220" height="24.65"/>
            </clipPath>
<clipPath id="terminal-1147005775-line-4">
    <rect x="0" y="99.1" width="1220" height="24.65"/>
            </clipPath>
<clipPath id="terminal-1147005775-line-5">
    <rect x="0" y="123.5" width="1220" height="24.65"/>
            </clipPath>
<clipPath id="terminal-1147005775-line-6">
    <rect x="0" y="147.9" width="1220" height="24.65"/>
            </clipPath>
<clipPath id="terminal-1147005775-line-7">
    <rect x="0" y="172.3" width="1220" height="24.65"/>
            </clipPath>
<clipPath id="terminal-1147005775-line-8">
    <rect x="0" y="196.7" width="1220" height="24.65"/>
            </clipPath>
<clipPath id="terminal-1147005775-line-9">
    <rect x="0" y="221.1" width="1220" height="24.65"/>
            </clipPath>
<clipPath id="terminal-1147005775-line-10">
    <rect x="0" y="245.5" width="1220" height="24.65"/>
            </clipPath>
<clipPath id="terminal-1147005775-line-11">
    <rect x="0" y="269.9" width="1220" height="24.65"/>
            </clipPath>
<clipPath id="terminal-1147005775-line-12">
    <rect x="0" y="294.3" width="1220" height="24.65"/>
            </clipPath>
<clipPath id="terminal-1147005775-line-13">
    <rect x="0" y="318.7" width="1220" height="24.65"/>
            </clipPath>
<clipPath id="terminal-1147005775-line-14">
    <rect x="0" y="343.1" width="1220" height="24.65"/>
            </clipPath>
<clipPath id="terminal-1147005775-line-15">
    <rect x="0" y="367.5" width="1220" height="24.65"/>
            </clipPath>
<clipPath id="terminal-1147005775-line-16">
    <rect x="0" y="391.9" width="1220" height="24.65"/>
            </clipPath>
<clipPath id="terminal-1147005775-line-17">
    <rect x="0" y="416.3" width="1220" height="24.65"/>
            </clipPath>
<clipPath id="terminal-1147005775-line-18">
    <rect x="0" y="440.7" width="1220" height="24.65"/>
            </clipPath>
<clipPath id="terminal-1147005775-line-19">
    <rect x="0" y="465.1" width="1220" height="24.65"/>
            </clipPath>
<clipPath id="terminal-1147005775-line-20">
    <rect x="0" y="489.5" width="1220" height="24.65"/>
            </clipPath>
<clipPath id="terminal-1147005775-line-21">
    <rect x="0" y="513.9" width="1220" height="24.65"/>
            </clipPath>
<clipPath id="terminal-1147005775-line-22">
    <rect x="0" y="538.3" width="1220" height="24.65"/>
            </clipPath>
<clipPath id="terminal-1147005775-line-23">
    <rect x="0" y="562.7" width="1220" height="24.65"/>
            </clipPath>
<clipPath id="terminal-1147005775-line-24">
    <rect x="0" y="587.1" width="1220" height="24.65"/>
            </clipPath>
<clipPath id="terminal-1147005775-line-25">
    <rect x="0" y="611.5" width="1220" height="24.65"/>
            </clipPath>
<clipPath id="terminal-1147005775-line-26">
    <rect x="0" y="635.9" width="1220" height="24.65"/>
            </clipPath>
<clipPath id="terminal-1147005775-line-27">
    <rect x="0" y="660.3" width="1220" height="24.65"/>
            </clipPath>
<clipPath id="terminal-1147005775-line-28">
    <rect x="0" y="684.7" width="1220" height="24.65"/>
            </clipPath>
    </defs>

    <rect fill="#292929" stroke="rgba(255,255,255,0.35)" stroke-width="1" x="1" y="1" width="1236" height="780" rx="8"/><text class="terminal-1147005775-title" fill="#c5c8c6" text-anchor="middle" x="618" y="27">orca</text>
            <g transform="translate(26,22)">
            <circle cx="0" cy="0" r="7" fill="#ff5f57"/>
            <circle cx="22" cy="0" r="7" fill="#febc2e"/>
            <circle cx="44" cy="0" r="7" fill="#28c840"/>
            </g>
        
    <g transform="translate(9, 41)" clip-path="url(#terminal-1147005775-clip-terminal)">
    <rect fill="#272727" x="0" y="1.5" width="12.2" height="24.65" shape-rendering="crispEdges"/><rect fill="#272727" x="12.2" y="1.5" width="1195.6" height="24.65" shape-rendering="crispEdges"/><rect fill="#272727" x="1207.8" y="1.5" width="12.2" height="24.65" shape-rendering="crispEdges"/><rect fill="#272727" x="0" y="25.9" width="12.2" height="24.65" shape-rendering="crispEdges"/><rect fill="#272727" x="12.2" y="25.9" width="12.2" height="24.65" shape-rendering="crispEdges"/><rect fill="#272727" x="24.4" y="25.9" width="12.2" height="24.65" shape-rendering="crispEdges"/><rect fill="#272727" x="36.6" y="25.9" width="73.2" height="24.65" shape-rendering="crispEdges"/><rect fill="#272727" x="109.8" y="25.9" width="341.6" height="24.65" shape-rendering="crispEdges"/><rect fill="#272727" x="451.4" y="25.9" width="280.6" height="24.65" shape-rendering="crispEdges"/><rect fill="#272727" x="732" y="25.9" width="61" height="24.65" shape-rendering="crispEdges"/><rect fill="#272727" x="793" y="25.9" width="85.4" height="24.65" shape-rendering="crispEdges"/><rect fill="#272727" x="878.4" y="25.9" width="170.8" height="24.65" shape-rendering="crispEdges"/><rect fill="#272727" x="1049.2" y="25.9" width="146.4" height="24.65" shape-rendering="crispEdges"/><rect fill="#272727" x="1195.6" y="25.9" width="12.2" height="24.65" shape-rendering="crispEdges"/><rect fill="#272727" x="1207.8" y="25.9" width="12.2" height="24.65" shape-rendering="crispEdges"/><rect fill="#272727" x="0" y="50.3" width="12.2" height="24.65" shape-rendering="crispEdges"/><rect fill="#272727" x="12.2" y="50.3" width="12.2" height="24.65" shape-rendering="crispEdges"/><rect fill="#2f2f2f" x="24.4" y="50.3" width="12.2" height="24.65" shape-rendering="crispEdges"/><rect fill="#2f2f2f" x="36.6" y="50.3" width="73.2" height="24.65" shape-rendering="crispEdges"/><rect fill="#2f2f2f" x="109.8" y="50.3" width="341.6" height="24.65" shape-rendering="crispEdges"/><rect fill="#2f2f2f" x="451.4" y="50.3" width="146.4" height="24.65" shape-rendering="crispEdges"/><rect fill="#2f2f2f" x="597.8" y="50.3" width="24.4" height="24.65" shape-rendering="crispEdges"/><rect fill="#2f2f2f" x="622.2" y="50.3" width="109.8" height="24.65" shape-rendering="crispEdges"/><rect fill="#2f2f2f" x="732" y="50.3" width="61" height="24.65" shape-rendering="crispEdges"/><rect fill="#2f2f2f" x="793" y="50.3" width="85.4" height="24.65" shape-rendering="crispEdges"/><rect fill="#2f2f2f" x="878.4" y="50.3" width="170.8" height="24.65" shape-rendering="crispEdges"/><rect fill="#2f2f2f" x="1049.2" y="50.3" width="146.4" height="24.65" shape-rendering="crispEdges"/><rect fill="#272727" x="1195.6" y="50.3" width="12.2" height="24.65" shape-rendering="crispEdges"/><rect fill="#272727" x="1207.8" y="50.3" width="12.2" height="24.65" shape-rendering="crispEdges"/><rect fill="#272727" x="0" y="74.7" width="12.2" height="24.65" shape-rendering="crispEdges"/><rect fill="#272727" x="12.2" y="74.7" width="12.2" height="24.65" shape-rendering="crispEdges"/><rect fill="#272727" x="24.4" y="74.7" width="12.2" height="24.65" shape-rendering="crispEdges"/><rect fill="#272727" x="36.6" y="74.7" width="73.2" height="24.65" shape-rendering="crispEdges"/><rect fill="#272727" x="109.8" y="74.7" width="341.6" height="24.65" shape-rendering="crispEdges"/><rect fill="#272727" x="451.4" y="74.7" width="183" height="24.65" shape-rendering="crispEdges"/><rect fill="#272727" x="634.4" y="74.7" width="24.4" height="24.65" shape-rendering="crispEdges"/><rect fill="#272727" x="658.8" y="74.7" width="73.2" height="24.65" shape-rendering="crispEdges"/><rect fill="#272727" x="732" y="74.7" width="61" height="24.65" shape-rendering="crispEdges"/><rect fill="#272727" x="793" y="74.7" width="85.4" height="24.65" shape-rendering="crispEdges"/><rect fill="#272727" x="878.4" y="74.7" width="170.8" height="24.65" shape-rendering="crispEdges"/><rect fill="#272727" x="1049.2" y="74.7" width="146.4" height="24.65" shape-rendering="crispEdges"/><rect fill="#272727" x="1195.6" y="74.7" width="12.2" height="24.65" shape-rendering="crispEdges"/><rect fill="#272727" x="1207.8" y="74.7" width="12.2" height="24.65" shape-rendering="crispEdges"/><rect fill="#272727" x="0" y="99.1" width="12.2" height="24.65" shape-rendering="crispEdges"/><rect fill="#272727" x="12.2" y="99.1" width="12.2" height="24.65" shape-rendering="crispEdges"/><rect fill="#272727" x="24.4" y="99.1" width="12.2" height="24.65" shape-rendering="crispEdges"/><rect fill="#272727" x="36.6" y="99.1" width="73.2" height="24.65" shape-rendering="crispEdges"/><rect fill="#272727" x="109.8" y="99.1" width="341.6" height="24.65" shape-rendering="crispEdges"/><rect fill="#272727" x="451.4" y="99.1" width="219.6" height="24.65" shape-rendering="crispEdges"/><rect fill="#272727" x="671" y="99.1" width="24.4" height="24.65" shape-rendering="crispEdges"/><rect fill="#272727" x="695.4" y="99.1" width="36.6" height="24.65" shape-rendering="crispEdges"/><rect fill="#272727" x="732" y="99.1" width="61" height="24.65" shape-rendering="crispEdges"/><rect fill="#272727" x="793" y="99.1" width="85.4" height="24.65" shape-rendering="crispEdges"/><rect fill="#272727" x="878.4" y="99.1" width="97.6" height="24.65" shape-rendering="crispEdges"/><rect fill="#272727" x="976" y="99.1" width="73.2" height="24.65" shape-rendering="crispEdges"/><rect fill="#272727" x="1049.2" y="99.1" width="146.4" height="24.65" shape-rendering="crispEdges"/><rect fill="#272727" x="1195.6" y="99.1" width="12.2" height="24.65" shape-rendering="crispEdges"/><rect fill="#272727" x="1207.8" y="99.1" width="12.2" height="24.65" shape-rendering="crispEdges"/><rect fill="#272727" x="0" y="123.5" width="12.2" height="24.65" shape-rendering="crispEdges"/><rect fill="#272727" x="12.2" y="123.5" width="12.2" height="24.65" shape-rendering="crispEdges"/><rect fill="#272727" x="24.4" y="123.5" width="12.2" height="24.65" shape-rendering="crispEdges"/><rect fill="#272727" x="36.6" y="123.5" width="73.2" height="24.65" shape-rendering="crispEdges"/><rect fill="#272727" x="109.8" y="123.5" width="341.6" height="24.65" shape-rendering="crispEdges"/><rect fill="#272727" x="451.4" y="123.5" width="256.2" height="24.65" shape-rendering="crispEdges"/><rect fill="#272727" x="707.6" y="123.5" width="24.4" height="24.65" shape-rendering="crispEdges"/><rect fill="#272727" x="732" y="123.5" width="61" height="24.65" shape-rendering="crispEdges"/><rect fill="#272727" x="793" y="123.5" width="85.4" height="24.65" shape-rendering="crispEdges"/><rect fill="#272727" x="878.4" y="123.5" width="170.8" height="24.65" shape-rendering="crispEdges"/><rect fill="#272727" x="1049.2" y="123.5" width="146.4" height="24.65" shape-rendering="crispEdges"/><rect fill="#272727" x="1195.6" y="123.5" width="12.2" height="24.65" shape-rendering="crispEdges"/><rect fill="#272727" x="1207.8" y="123.5" width="12.2" height="24.65" shape-rendering="crispEdges"/><rect fill="#272727" x="0" y="147.9" width="12.2" height="24.65" shape-rendering="crispEdges"/><rect fill="#272727" x="12.2" y="147.9" width="12.2" height="24.65" shape-rendering="crispEdges"/><rect fill="#272727" x="24.4" y="147.9" width="12.2" height="24.65" shape-rendering="crispEdges"/><rect fill="#272727" x="36.6" y="147.9" width="73.2" height="24.65" shape-rendering="crispEdges"/><rect fill="#272727" x="109.8" y="147.9" width="341.6" height="24.65" shape-rendering="crispEdges"/><rect fill="#272727" x="451.4" y="147.9" width="73.2" height="24.65" shape-rendering="crispEdges"/><rect fill="#272727" x="524.6" y="147.9" width="24.4" height="24.65" shape-rendering="crispEdges"/><rect fill="#272727" x="549" y="147.9" width="183" height="24.65" shape-rendering="crispEdges"/><rect fill="#272727" x="732" y="147.9" width="61" height="24.65" shape-rendering="crispEdges"/><rect fill="#272727" x="793" y="147.9" width="85.4" height="24.65" shape-rendering="crispEdges"/><rect fill="#272727" x="878.4" y="147.9" width="146.4" height="24.65" shape-rendering="crispEdges"/><rect fill="#272727" x="1024.8" y="147.9" width="24.4" height="24.65" shape-rendering="crispEdges"/><rect fill="#272727" x="1049.2" y="147.9" width="146.4" height="24.65" shape-rendering="crispEdges"/><rect fill="#272727" x="1195.6" y="147.9" width="12.2" height="24.65" shape-rendering="crispEdges"/><rect fill="#272727" x="1207.8" y="147.9" width="12.2" height="24.65" shape-rendering="crispEdges"/><rect fill="#272727" x="0" y="172.3" width="12.2" height="24.65" shape-rendering="crispEdges"/><rect fill="#272727" x="12.2" y="172.3" width="12.2" height="24.65" shape-rendering="crispEdges"/><rect fill="#272727" x="24.4" y="172.3" width="1171.2" height="24.65" shape-rendering="crispEdges"/><rect fill="#272727" x="1195.6" y="172.3" width="12.2" height="24.65" shape-rendering="crispEdges"/><rect fill="#272727" x="1207.8" y="172.3" width="12.2" height="24.65" shape-rendering="crispEdges"/><rect fill="#272727" x="0" y="196.7" width="12.2" height="24.65" shape-rendering="crispEdges"/><rect fill="#272727" x="12.2" y="196.7" width="12.2" height="24.65" shape-rendering="crispEdges"/><rect fill="#272727" x="24.4" y="196.7" width="1171.2" height="24.65" shape-rendering="crispEdges"/><rect fill="#272727" x="1195.6" y="196.7" width="12.2" height="24.65" shape-rendering="crispEdges"/><rect fill="#272727" x="1207.8" y="196.7" width="12.2" height="24.65" shape-rendering="crispEdges"/><rect fill="#272727" x="0" y="221.1" width="12.2" height="24.65" shape-rendering="crispEdges"/><rect fill="#272727" x="12.2" y="221.1" width="12.2" height="24.65" shape-rendering="crispEdges"/><rect fill="#272727" x="24.4" y="221.1" width="1171.2" height="24.65" shape-rendering="crispEdges"/><rect fill="#272727" x="1195.6" y="221.1" width="12.2" height="24.65" shape-rendering="crispEdges"/><rect fill="#272727" x="1207.8" y="221.1" width="12.2" height="24.65" shape-rendering="crispEdges"/><rect fill="#272727" x="0" y="245.5" width="12.2" height="24.65" shape-rendering="crispEdges"/><rect fill="#272727" x="12.2" y="245.5" width="12.2" height="24.65" shape-rendering="crispEdges"/><rect fill="#272727" x="24.4" y="245.5" width="1171.2" height="24.65" shape-rendering="crispEdges"/><rect fill="#272727" x="1195.6" y="245.5" width="12.2" height="24.65" shape-rendering="crispEdges"/><rect fill="#272727" x="1207.8" y="245.5" width="12.2" height="24.65" shape-rendering="crispEdges"/><rect fill="#272727" x="0" y="269.9" width="12.2" height="24.65" shape-rendering="crispEdges"/><rect fill="#272727" x="12.2" y="269.9" width="12.2" height="24.65" shape-rendering="crispEdges"/><rect fill="#272727" x="24.4" y="269.9" width="1171.2" height="24.65" shape-rendering="crispEdges"/><rect fill="#272727" x="1195.6" y="269.9" width="12.2" height="24.65" shape-rendering="crispEdges"/><rect fill="#272727" x="1207.8" y="269.9" width="12.2" height="24.65" shape-rendering="crispEdges"/><rect fill="#272727" x="0" y="294.3" width="12.2" height="24.65" shape-rendering="crispEdges"/><rect fill="#272727" x="12.2" y="294.3" width="12.2" height="24.65" shape-rendering="crispEdges"/><rect fill="#272727" x="24.4" y="294.3" width="1171.2" height="24.65" shape-rendering="crispEdges"/><rect fill="#272727" x="1195.6" y="294.3" width="12.2" height="24.65" shape-rendering="crispEdges"/><rect fill="#272727" x="1207.8" y="294.3" width="12.2" height="24.65" shape-rendering="crispEdges"/><rect fill="#272727" x="0" y="318.7" width="12.2" height="24.65" shape-rendering="crispEdges"/><rect fill="#272727" x="12.2" y="318.7" width="12.2" height="24.65" shape-rendering="crispEdges"/><rect fill="#272727" x="24.4" y="318.7" width="1171.2" height="24.65" shape-rendering="crispEdges"/><rect fill="#272727" x="1195.6" y="318.7" width="12.2" height="24.65" shape-rendering="crispEdges"/><rect fill="#272727" x="1207.8" y="318.7" width="12.2" height="24.65" shape-rendering="crispEdges"/><rect fill="#272727" x="0" y="343.1" width="12.2" height="24.65" shape-rendering="crispEdges"/><rect fill="#272727" x="12.2" y="343.1" width="12.2" height="24.65" shape-rendering="crispEdges"/><rect fill="#272727" x="24.4" y="343.1" width="1171.2" height="24.65" shape-rendering="crispEdges"/><rect fill="#272727" x="1195.6" y="343.1" width="12.2" height="24.65" shape-rendering="crispEdges"/><rect fill="#272727" x="1207.8" y="343.1" width="12.2" height="24.65" shape-rendering="crispEdges"/><rect fill="#272727" x="0" y="367.5" width="12.2" height="24.65" shape-rendering="crispEdges"/><rect fill="#272727" x="12.2" y="367.5" width="12.2" height="24.65" shape-rendering="crispEdges"/><rect fill="#272727" x="24.4" y="367.5" width="1171.2" height="24.65" shape-rendering="crispEdges"/><rect fill="#272727" x="1195.6" y="367.5" width="12.2" height="24.65" shape-rendering="crispEdges"/><rect fill="#272727" x="1207.8" y="367.5" width="12.2" height="24.65" shape-rendering="crispEdges"/><rect fill="#272727" x="0" y="391.9" width="12.2" height="24.65" shape-rendering="crispEdges"/><rect fill="#272727" x="12.2" y="391.9" width="12.2" height="24.65" shape-rendering="crispEdges"/><rect fill="#272727" x="24.4" y="391.9" width="1171.2" height="24.65" shape-rendering="crispEdges"/><rect fill="#272727" x="1195.6" y="391.9" width="12.2" height="24.65" shape-rendering="crispEdges"/><rect fill="#272727" x="1207.8" y="391.9" width="12.2" height="24.65" shape-rendering="crispEdges"/><rect fill="#272727" x="0" y="416.3" width="12.2" height="24.65" shape-rendering="crispEdges"/><rect fill="#272727" x="12.2" y="416.3" width="12.2" height="24.65" shape-rendering="crispEdges"/><rect fill="#272727" x="24.4" y="416.3" width="1171.2" height="24.65" shape-rendering="crispEdges"/><rect fill="#272727" x="1195.6" y="416.3" width="12.2" height="24.65" shape-rendering="crispEdges"/><rect fill="#272727" x="1207.8" y="416.3" width="12.2" height="24.65" shape-rendering="crispEdges"/><rect fill="#272727" x="0" y="440.7" width="12.2" height="24.65" shape-rendering="crispEdges"/><rect fill="#272727" x="12.2" y="440.7" width="12.2" height="24.65" shape-rendering="crispEdges"/><rect fill="#272727" x="24.4" y="440.7" width="1171.2" height="24.65" shape-rendering="crispEdges"/><rect fill="#272727" x="1195.6" y="440.7" width="12.2" height="24.65" shape-rendering="crispEdges"/><rect fill="#272727" x="1207.8" y="440.7" width="12.2" height="24.65" shape-rendering="crispEdges"/><rect fill="#272727" x="0" y="465.1" width="12.2" height="24.65" shape-rendering="crispEdges"/><rect fill="#272727" x="12.2" y="465.1" width="12.2" height="24.65" shape-rendering="crispEdges"/><rect fill="#272727" x="24.4" y="465.1" width="1171.2" height="24.65" shape-rendering="crispEdges"/><rect fill="#272727" x="1195.6" y="465.1" width="12.2" height="24.65" shape-rendering="crispEdges"/><rect fill="#272727" x="1207.8" y="465.1" width="12.2" height="24.65" shape-rendering="crispEdges"/><rect fill="#272727" x="0" y="489.5" width="12.2" height="24.65" shape-rendering="crispEdges"/><rect fill="#272727" x="12.2" y="489.5" width="12.2" height="24.65" shape-rendering="crispEdges"/><rect fill="#272727" x="24.4" y="489.5" width="1171.2" height="24.65" shape-rendering="crispEdges"/><rect fill="#272727" x="1195.6" y="489.5" width="12.2" height="24.65" shape-rendering="crispEdges"/><rect fill="#272727" x="1207.8" y="489.5" width="12.2" height="24.65" shape-rendering="crispEdges"/><rect fill="#272727" x="0" y="513.9" width="12.2" height="24.65" shape-rendering="crispEdges"/><rect fill="#272727" x="12.2" y="513.9" width="12.2" height="24.65" shape-rendering="crispEdges"/><rect fill="#272727" x="24.4" y="513.9" width="1171.2" height="24.65" shape-rendering="crispEdges"/><rect fill="#272727" x="1195.6" y="513.9" width="12.2" height="24.65" shape-rendering="crispEdges"/><rect fill="#272727" x="1207.8" y="513.9" width="12.2" height="24.65" shape-rendering="crispEdges"/><rect fill="#272727" x="0" y="538.3" width="12.2" height="24.65" shape-rendering="crispEdges"/><rect fill="#272727" x="12.2" y="538.3" width="12.2" height="24.65" shape-rendering="crispEdges"/><rect fill="#272727" x="24.4" y="538.3" width="1171.2" height="24.65" shape-rendering="crispEdges"/><rect fill="#272727" x="1195.6" y="538.3" width="12.2" height="24.65" shape-rendering="crispEdges"/><rect fill="#272727" x="1207.8" y="538.3" width="12.2" height="24.65" shape-rendering="crispEdges"/><rect fill="#272727" x="0" y="562.7" width="12.2" height="24.65" shape-rendering="crispEdges"/><rect fill="#272727" x="12.2" y="562.7" width="12.2" height="24.65" shape-rendering="crispEdges"/><rect fill="#272727" x="24.4" y="562.7" width="1171.2" height="24.65" shape-rendering="crispEdges"/><rect fill="#272727" x="1195.6" y="562.7" width="12.2" height="24.65" shape-rendering="crispEdges"/><rect fill="#272727" x="1207.8" y="562.7" width="12.2" height="24.65" shape-rendering="crispEdges"/><rect fill="#272727" x="0" y="587.1" width="12.2" height="24.65" shape-rendering="crispEdges"/><rect fill="#272727" x="12.2" y="587.1" width="12.2" height="24.65" shape-rendering="crispEdges"/><rect fill="#272727" x="24.4" y="587.1" width="1171.2" height="24.65" shape-rendering="crispEdges"/><rect fill="#272727" x="1195.6" y="587.1" width="12.2" height="24.65" shape-rendering="crispEdges"/><rect fill="#272727" x="1207.8" y="587.1" width="12.2" height="24.65" shape-rendering="crispEdges"/><rect fill="#272727" x="0" y="611.5" width="12.2" height="24.65" shape-rendering="crispEdges"/><rect fill="#272727" x="12.2" y="611.5" width="12.2" height="24.65" shape-rendering="crispEdges"/><rect fill="#272727" x="24.4" y="611.5" width="1171.2" height="24.65" shape-rendering="crispEdges"/><rect fill="#272727" x="1195.6" y="611.5" width="12.2" height="24.65" shape-rendering="crispEdges"/><rect fill="#272727" x="1207.8" y="611.5" width="12.2" height="24.65" shape-rendering="crispEdges"/><rect fill="#272727" x="0" y="635.9" width="12.2" height="24.65" shape-rendering="crispEdges"/><rect fill="#272727" x="12.2" y="635.9" width="1195.6" height="24.65" shape-rendering="crispEdges"/><rect fill="#272727" x="1207.8" y="635.9" width="12.2" height="24.65" shape-rendering="crispEdges"/><rect fill="#121212" x="0" y="660.3" width="12.2" height="24.65" shape-rendering="crispEdges"/><rect fill="#121212" x="12.2" y="660.3" width="231.8" height="24.65" shape-rendering="crispEdges"/><rect fill="#121212" x="244" y="660.3" width="963.8" height="24.65" shape-rendering="crispEdges"/><rect fill="#121212" x="1207.8" y="660.3" width="12.2" height="24.65" shape-rendering="crispEdges"/><rect fill="#1e1e1e" x="0" y="684.7" width="12.2" height="24.65" shape-rendering="crispEdges"/><rect fill="#1e1e1e" x="12.2" y="684.7" width="988.2" height="24.65" shape-rendering="crispEdges"/><rect fill="#1e1e1e" x="1000.4" y="684.7" width="207.4" height="24.65" shape-rendering="crispEdges"/><rect fill="#1e1e1e" x="1207.8" y="684.7" width="12.2" height="24.65" shape-rendering="crispEdges"/><rect fill="#242f38" x="0" y="709.1" width="36.6" height="24.65" shape-rendering="crispEdges"/><rect fill="#242f38" x="36.6" y="709.1" width="61" height="24.65" shape-rendering="crispEdges"/><rect fill="#242f38" x="97.6" y="709.1" width="36.6" height="24.65" shape-rendering="crispEdges"/><rect fill="#242f38" x="134.2" y="709.1" width="97.6" height="24.65" shape-rendering="crispEdges"/><rect fill="#242f38" x="231.8" y="709.1" width="36.6" height="24.65" shape-rendering="crispEdges"/><rect fill="#242f38" x="268.4" y="709.1" width="73.2" height="24.65" shape-rendering="crispEdges"/><rect fill="#242f38" x="341.6" y="709.1" width="36.6" height="24.65" shape-rendering="crispEdges"/><rect fill="#242f38" x="378.2" y="709.1" width="61" height="24.65" shape-rendering="crispEdges"/><rect fill="#242f38" x="439.2" y="709.1" width="36.6" height="24.65" shape-rendering="crispEdges"/><rect fill="#242f38" x="475.8" y="709.1" width="61" height="24.65" shape-rendering="crispEdges"/><rect fill="#242f38" x="536.8" y="709.1" width="683.2" height="24.65" shape-rendering="crispEdges"/>
    <g class="terminal-1147005775-matrix">
    <text class="terminal-1147005775-r1" x="0" y="20" textLength="12.2" clip-path="url(#terminal-1147005775-line-0)">╭</text><text class="terminal-1147005775-r1" x="12.2" y="20" textLength="1195.6" clip-path="url(#terminal-1147005775-line-0)">──────────────────────────────────────────────────────────────────────────────────────────────────</text><text class="terminal-1147005775-r1" x="1207.8" y="20" textLength="12.2" clip-path="url(#terminal-1147005775-line-0)">╮</text><text class="terminal-1147005775-r2" x="1220" y="20" textLength="12.2" clip-path="url(#terminal-1147005775-line-0)">
</text><text class="terminal-1147005775-r1" x="0" y="44.4" textLength="12.2" clip-path="url(#terminal-1147005775-line-1)">│</text><text class="terminal-1147005775-r3" x="36.6" y="44.4" textLength="73.2" clip-path="url(#terminal-1147005775-line-1)">agent </text><text class="terminal-1147005775-r3" x="109.8" y="44.4" textLength="341.6" clip-path="url(#terminal-1147005775-line-1)">lane                        </text><text class="terminal-1147005775-r3" x="451.4" y="44.4" textLength="280.6" clip-path="url(#terminal-1147005775-line-1)">stage                  </text><text class="terminal-1147005775-r3" x="732" y="44.4" textLength="61" clip-path="url(#terminal-1147005775-line-1)">seen </text><text class="terminal-1147005775-r3" x="793" y="44.4" textLength="85.4" clip-path="url(#terminal-1147005775-line-1)">s·c·p  </text><text class="terminal-1147005775-r3" x="878.4" y="44.4" textLength="170.8" clip-path="url(#terminal-1147005775-line-1)">health        </text><text class="terminal-1147005775-r1" x="1207.8" y="44.4" textLength="12.2" clip-path="url(#terminal-1147005775-line-1)">│</text><text class="terminal-1147005775-r2" x="1220" y="44.4" textLength="12.2" clip-path="url(#terminal-1147005775-line-1)">
</text><text class="terminal-1147005775-r1" x="0" y="68.8" textLength="12.2" clip-path="url(#terminal-1147005775-line-2)">│</text><text class="terminal-1147005775-r4" x="24.4" y="68.8" textLength="12.2" clip-path="url(#terminal-1147005775-line-2)">●</text><text class="terminal-1147005775-r5" x="36.6" y="68.8" textLength="73.2" clip-path="url(#terminal-1147005775-line-2)">claude</text><text class="terminal-1147005775-r5" x="109.8" y="68.8" textLength="341.6" clip-path="url(#terminal-1147005775-line-2)">tui-v3 · tui-v3-impl        </text><text class="terminal-1147005775-r6" x="451.4" y="68.8" textLength="146.4" clip-path="url(#terminal-1147005775-line-2)">br·sp·pl·ta·</text><text class="terminal-1147005775-r7" x="597.8" y="68.8" textLength="24.4" clip-path="url(#terminal-1147005775-line-2)">IM</text><text class="terminal-1147005775-r6" x="622.2" y="68.8" textLength="109.8" clip-path="url(#terminal-1147005775-line-2)">·rs·rc·rp</text><text class="terminal-1147005775-r5" x="732" y="68.8" textLength="61" clip-path="url(#terminal-1147005775-line-2)">12s  </text><text class="terminal-1147005775-r5" x="793" y="68.8" textLength="85.4" clip-path="url(#terminal-1147005775-line-2)">·  ·  ·</text><text class="terminal-1147005775-r1" x="1207.8" y="68.8" textLength="12.2" clip-path="url(#terminal-1147005775-line-2)">│</text><text class="terminal-1147005775-r2" x="1220" y="68.8" textLength="12.2" clip-path="url(#terminal-1147005775-line-2)">
</text><text class="terminal-1147005775-r1" x="0" y="93.2" textLength="12.2" clip-path="url(#terminal-1147005775-line-3)">│</text><text class="terminal-1147005775-r4" x="24.4" y="93.2" textLength="12.2" clip-path="url(#terminal-1147005775-line-3)">●</text><text class="terminal-1147005775-r8" x="36.6" y="93.2" textLength="73.2" clip-path="url(#terminal-1147005775-line-3)">codex </text><text class="terminal-1147005775-r8" x="109.8" y="93.2" textLength="341.6" clip-path="url(#terminal-1147005775-line-3)">wt-contract · wt-contract   </text><text class="terminal-1147005775-r9" x="451.4" y="93.2" textLength="183" clip-path="url(#terminal-1147005775-line-3)">br·sp·pl·ta·im·</text><text class="terminal-1147005775-r7" x="634.4" y="93.2" textLength="24.4" clip-path="url(#terminal-1147005775-line-3)">RS</text><text class="terminal-1147005775-r9" x="658.8" y="93.2" textLength="73.2" clip-path="url(#terminal-1147005775-line-3)">·rc·rp</text><text class="terminal-1147005775-r8" x="732" y="93.2" textLength="61" clip-path="url(#terminal-1147005775-line-3)">2m   </text><text class="terminal-1147005775-r8" x="793" y="93.2" textLength="85.4" clip-path="url(#terminal-1147005775-line-3)">·  ·  ·</text><text class="terminal-1147005775-r1" x="1207.8" y="93.2" textLength="12.2" clip-path="url(#terminal-1147005775-line-3)">│</text><text class="terminal-1147005775-r2" x="1220" y="93.2" textLength="12.2" clip-path="url(#terminal-1147005775-line-3)">
</text><text class="terminal-1147005775-r1" x="0" y="117.6" textLength="12.2" clip-path="url(#terminal-1147005775-line-4)">│</text><text class="terminal-1147005775-r7" x="24.4" y="117.6" textLength="12.2" clip-path="url(#terminal-1147005775-line-4)">◐</text><text class="terminal-1147005775-r8" x="36.6" y="117.6" textLength="73.2" clip-path="url(#terminal-1147005775-line-4)">claude</text><text class="terminal-1147005775-r8" x="109.8" y="117.6" textLength="341.6" clip-path="url(#terminal-1147005775-line-4)">perf-lab · perf-lab         </text><text class="terminal-1147005775-r9" x="451.4" y="117.6" textLength="219.6" clip-path="url(#terminal-1147005775-line-4)">br·sp·pl·ta·im·rs·</text><text class="terminal-1147005775-r7" x="671" y="117.6" textLength="24.4" clip-path="url(#terminal-1147005775-line-4)">RC</text><text class="terminal-1147005775-r9" x="695.4" y="117.6" textLength="36.6" clip-path="url(#terminal-1147005775-line-4)">·rp</text><text class="terminal-1147005775-r8" x="732" y="117.6" textLength="61" clip-path="url(#terminal-1147005775-line-4)">2h   </text><text class="terminal-1147005775-r8" x="793" y="117.6" textLength="85.4" clip-path="url(#terminal-1147005775-line-4)">✓  ·  ·</text><text class="terminal-1147005775-r10" x="878.4" y="117.6" textLength="97.6" clip-path="url(#terminal-1147005775-line-4)">stale 2h</text><text class="terminal-1147005775-r1" x="1207.8" y="117.6" textLength="12.2" clip-path="url(#terminal-1147005775-line-4)">│</text><text class="terminal-1147005775-r2" x="1220" y="117.6" textLength="12.2" clip-path="url(#terminal-1147005775-line-4)">
</text><text class="terminal-1147005775-r1" x="0" y="142" textLength="12.2" clip-path="url(#terminal-1147005775-line-5)">│</text><text class="terminal-1147005775-r11" x="24.4" y="142" textLength="12.2" clip-path="url(#terminal-1147005775-line-5)">◯</text><text class="terminal-1147005775-r8" x="36.6" y="142" textLength="73.2" clip-path="url(#terminal-1147005775-line-5)">none  </text><text class="terminal-1147005775-r8" x="109.8" y="142" textLength="341.6" clip-path="url(#terminal-1147005775-line-5)">015-adopt · 015-adopt       </text><text class="terminal-1147005775-r9" x="451.4" y="142" textLength="256.2" clip-path="url(#terminal-1147005775-line-5)">br·sp·pl·ta·im·rs·rc·</text><text class="terminal-1147005775-r7" x="707.6" y="142" textLength="24.4" clip-path="url(#terminal-1147005775-line-5)">RP</text><text class="terminal-1147005775-r8" x="732" y="142" textLength="61" clip-path="url(#terminal-1147005775-line-5)">3h   </text><text class="terminal-1147005775-r8" x="793" y="142" textLength="85.4" clip-path="url(#terminal-1147005775-line-5)">✓  ✓  ⏵</text><text class="terminal-1147005775-r10" x="878.4" y="142" textLength="170.8" clip-path="url(#terminal-1147005775-line-5)">merged·cleanup</text><text class="terminal-1147005775-r1" x="1207.8" y="142" textLength="12.2" clip-path="url(#terminal-1147005775-line-5)">│</text><text class="terminal-1147005775-r2" x="1220" y="142" textLength="12.2" clip-path="url(#terminal-1147005775-line-5)">
</text><text class="terminal-1147005775-r1" x="0" y="166.4" textLength="12.2" clip-path="url(#terminal-1147005775-line-6)">│</text><text class="terminal-1147005775-r12" x="24.4" y="166.4" textLength="12.2" clip-path="url(#terminal-1147005775-line-6)">✕</text><text class="terminal-1147005775-r8" x="36.6" y="166.4" textLength="73.2" clip-path="url(#terminal-1147005775-line-6)">codex </text><text class="terminal-1147005775-r8" x="109.8" y="166.4" textLength="341.6" clip-path="url(#terminal-1147005775-line-6)">- · broken                  </text><text class="terminal-1147005775-r9" x="451.4" y="166.4" textLength="73.2" clip-path="url(#terminal-1147005775-line-6)">br·sp·</text><text class="terminal-1147005775-r7" x="524.6" y="166.4" textLength="24.4" clip-path="url(#terminal-1147005775-line-6)">PL</text><text class="terminal-1147005775-r9" x="549" y="166.4" textLength="183" clip-path="url(#terminal-1147005775-line-6)">·ta·im·rs·rc·rp</text><text class="terminal-1147005775-r8" x="732" y="166.4" textLength="61" clip-path="url(#terminal-1147005775-line-6)">1h   </text><text class="terminal-1147005775-r8" x="793" y="166.4" textLength="85.4" clip-path="url(#terminal-1147005775-line-6)">·  ·  ·</text><text class="terminal-1147005775-r10" x="878.4" y="166.4" textLength="146.4" clip-path="url(#terminal-1147005775-line-6)">setup-failed</text><text class="terminal-1147005775-r1" x="1207.8" y="166.4" textLength="12.2" clip-path="url(#terminal-1147005775-line-6)">│</text><text class="terminal-1147005775-r2" x="1220" y="166.4" textLength="12.2" clip-path="url(#terminal-1147005775-line-6)">
</text><text class="terminal-1147005775-r1" x="0" y="190.8" textLength="12.2" clip-path="url(#terminal-1147005775-line-7)">│</text><text class="terminal-1147005775-r1" x="1207.8" y="190.8" textLength="12.2" clip-path="url(#terminal-1147005775-line-7)">│</text><text class="terminal-1147005775-r2" x="1220" y="190.8" textLength="12.2" clip-path="url(#terminal-1147005775-line-7)">
</text><text class="terminal-1147005775-r1" x="0" y="215.2" textLength="12.2" clip-path="url(#terminal-1147005775-line-8)">│</text><text class="terminal-1147005775-r1" x="1207.8" y="215.2" textLength="12.2" clip-path="url(#terminal-1147005775-line-8)">│</text><text class="terminal-1147005775-r2" x="1220" y="215.2" textLength="12.2" clip-path="url(#terminal-1147005775-line-8)">
</text><text class="terminal-1147005775-r1" x="0" y="239.6" textLength="12.2" clip-path="url(#terminal-1147005775-line-9)">│</text><text class="terminal-1147005775-r1" x="1207.8" y="239.6" textLength="12.2" clip-path="url(#terminal-1147005775-line-9)">│</text><text class="terminal-1147005775-r2" x="1220" y="239.6" textLength="12.2" clip-path="url(#terminal-1147005775-line-9)">
</text><text class="terminal-1147005775-r1" x="0" y="264" textLength="12.2" clip-path="url(#terminal-1147005775-line-10)">│</text><text class="terminal-1147005775-r1" x="1207.8" y="264" textLength="12.2" clip-path="url(#terminal-1147005775-line-10)">│</text><text class="terminal-1147005775-r2" x="1220" y="264" textLength="12.2" clip-path="url(#terminal-1147005775-line-10)">
</text><text class="terminal-1147005775-r1" x="0" y="288.4" textLength="12.2" clip-path="url(#terminal-1147005775-line-11)">│</text><text class="terminal-1147005775-r1" x="1207.8" y="288.4" textLength="12.2" clip-path="url(#terminal-1147005775-line-11)">│</text><text class="terminal-1147005775-r2" x="1220" y="288.4" textLength="12.2" clip-path="url(#terminal-1147005775-line-11)">
</text><text class="terminal-1147005775-r1" x="0" y="312.8" textLength="12.2" clip-path="url(#terminal-1147005775-line-12)">│</text><text class="terminal-1147005775-r1" x="1207.8" y="312.8" textLength="12.2" clip-path="url(#terminal-1147005775-line-12)">│</text><text class="terminal-1147005775-r2" x="1220" y="312.8" textLength="12.2" clip-path="url(#terminal-1147005775-line-12)">
</text><text class="terminal-1147005775-r1" x="0" y="337.2" textLength="12.2" clip-path="url(#terminal-1147005775-line-13)">│</text><text class="terminal-1147005775-r1" x="1207.8" y="337.2" textLength="12.2" clip-path="url(#terminal-1147005775-line-13)">│</text><text class="terminal-1147005775-r2" x="1220" y="337.2" textLength="12.2" clip-path="url(#terminal-1147005775-line-13)">
</text><text class="terminal-1147005775-r1" x="0" y="361.6" textLength="12.2" clip-path="url(#terminal-1147005775-line-14)">│</text><text class="terminal-1147005775-r1" x="1207.8" y="361.6" textLength="12.2" clip-path="url(#terminal-1147005775-line-14)">│</text><text class="terminal-1147005775-r2" x="1220" y="361.6" textLength="12.2" clip-path="url(#terminal-1147005775-line-14)">
</text><text class="terminal-1147005775-r1" x="0" y="386" textLength="12.2" clip-path="url(#terminal-1147005775-line-15)">│</text><text class="terminal-1147005775-r1" x="1207.8" y="386" textLength="12.2" clip-path="url(#terminal-1147005775-line-15)">│</text><text class="terminal-1147005775-r2" x="1220" y="386" textLength="12.2" clip-path="url(#terminal-1147005775-line-15)">
</text><text class="terminal-1147005775-r1" x="0" y="410.4" textLength="12.2" clip-path="url(#terminal-1147005775-line-16)">│</text><text class="terminal-1147005775-r1" x="1207.8" y="410.4" textLength="12.2" clip-path="url(#terminal-1147005775-line-16)">│</text><text class="terminal-1147005775-r2" x="1220" y="410.4" textLength="12.2" clip-path="url(#terminal-1147005775-line-16)">
</text><text class="terminal-1147005775-r1" x="0" y="434.8" textLength="12.2" clip-path="url(#terminal-1147005775-line-17)">│</text><text class="terminal-1147005775-r1" x="1207.8" y="434.8" textLength="12.2" clip-path="url(#terminal-1147005775-line-17)">│</text><text class="terminal-1147005775-r2" x="1220" y="434.8" textLength="12.2" clip-path="url(#terminal-1147005775-line-17)">
</text><text class="terminal-1147005775-r1" x="0" y="459.2" textLength="12.2" clip-path="url(#terminal-1147005775-line-18)">│</text><text class="terminal-1147005775-r1" x="1207.8" y="459.2" textLength="12.2" clip-path="url(#terminal-1147005775-line-18)">│</text><text class="terminal-1147005775-r2" x="1220" y="459.2" textLength="12.2" clip-path="url(#terminal-1147005775-line-18)">
</text><text class="terminal-1147005775-r1" x="0" y="483.6" textLength="12.2" clip-path="url(#terminal-1147005775-line-19)">│</text><text class="terminal-1147005775-r1" x="1207.8" y="483.6" textLength="12.2" clip-path="url(#terminal-1147005775-line-19)">│</text><text class="terminal-1147005775-r2" x="1220" y="483.6" textLength="12.2" clip-path="url(#terminal-1147005775-line-19)">
</text><text class="terminal-1147005775-r1" x="0" y="508" textLength="12.2" clip-path="url(#terminal-1147005775-line-20)">│</text><text class="terminal-1147005775-r1" x="1207.8" y="508" textLength="12.2" clip-path="url(#terminal-1147005775-line-20)">│</text><text class="terminal-1147005775-r2" x="1220" y="508" textLength="12.2" clip-path="url(#terminal-1147005775-line-20)">
</text><text class="terminal-1147005775-r1" x="0" y="532.4" textLength="12.2" clip-path="url(#terminal-1147005775-line-21)">│</text><text class="terminal-1147005775-r1" x="1207.8" y="532.4" textLength="12.2" clip-path="url(#terminal-1147005775-line-21)">│</text><text class="terminal-1147005775-r2" x="1220" y="532.4" textLength="12.2" clip-path="url(#terminal-1147005775-line-21)">
</text><text class="terminal-1147005775-r1" x="0" y="556.8" textLength="12.2" clip-path="url(#terminal-1147005775-line-22)">│</text><text class="terminal-1147005775-r1" x="1207.8" y="556.8" textLength="12.2" clip-path="url(#terminal-1147005775-line-22)">│</text><text class="terminal-1147005775-r2" x="1220" y="556.8" textLength="12.2" clip-path="url(#terminal-1147005775-line-22)">
</text><text class="terminal-1147005775-r1" x="0" y="581.2" textLength="12.2" clip-path="url(#terminal-1147005775-line-23)">│</text><text class="terminal-1147005775-r1" x="1207.8" y="581.2" textLength="12.2" clip-path="url(#terminal-1147005775-line-23)">│</text><text class="terminal-1147005775-r2" x="1220" y="581.2" textLength="12.2" clip-path="url(#terminal-1147005775-line-23)">
</text><text class="terminal-1147005775-r1" x="0" y="605.6" textLength="12.2" clip-path="url(#terminal-1147005775-line-24)">│</text><text class="terminal-1147005775-r1" x="1207.8" y="605.6" textLength="12.2" clip-path="url(#terminal-1147005775-line-24)">│</text><text class="terminal-1147005775-r2" x="1220" y="605.6" textLength="12.2" clip-path="url(#terminal-1147005775-line-24)">
</text><text class="terminal-1147005775-r1" x="0" y="630" textLength="12.2" clip-path="url(#terminal-1147005775-line-25)">│</text><text class="terminal-1147005775-r1" x="1207.8" y="630" textLength="12.2" clip-path="url(#terminal-1147005775-line-25)">│</text><text class="terminal-1147005775-r2" x="1220" y="630" textLength="12.2" clip-path="url(#terminal-1147005775-line-25)">
</text><text class="terminal-1147005775-r1" x="0" y="654.4" textLength="12.2" clip-path="url(#terminal-1147005775-line-26)">╰</text><text class="terminal-1147005775-r1" x="12.2" y="654.4" textLength="1195.6" clip-path="url(#terminal-1147005775-line-26)">──────────────────────────────────────────────────────────────────────────────────────────────────</text><text class="terminal-1147005775-r1" x="1207.8" y="654.4" textLength="12.2" clip-path="url(#terminal-1147005775-line-26)">╯</text><text class="terminal-1147005775-r2" x="1220" y="654.4" textLength="12.2" clip-path="url(#terminal-1147005775-line-26)">
</text><text class="terminal-1147005775-r13" x="12.2" y="678.8" textLength="231.8" clip-path="url(#terminal-1147005775-line-27)">  last: (no events)</text><text class="terminal-1147005775-r2" x="1220" y="678.8" textLength="12.2" clip-path="url(#terminal-1147005775-line-27)">
</text><text class="terminal-1147005775-r6" x="12.2" y="703.2" textLength="988.2" clip-path="url(#terminal-1147005775-line-28)">  host: superpowers · 5 lanes · 1 stale · 1 ready-to-merge · last refresh: 0s ago</text><text class="terminal-1147005775-r2" x="1220" y="703.2" textLength="12.2" clip-path="url(#terminal-1147005775-line-28)">
</text><text class="terminal-1147005775-r14" x="0" y="727.6" textLength="36.6" clip-path="url(#terminal-1147005775-line-29)"> q </text><text class="terminal-1147005775-r8" x="36.6" y="727.6" textLength="61" clip-path="url(#terminal-1147005775-line-29)">quit </text><text class="terminal-1147005775-r14" x="97.6" y="727.6" textLength="36.6" clip-path="url(#terminal-1147005775-line-29)"> g </text><text class="terminal-1147005775-r8" x="134.2" y="727.6" textLength="97.6" clip-path="url(#terminal-1147005775-line-29)">refresh </text><text class="terminal-1147005775-r14" x="231.8" y="727.6" textLength="36.6" clip-path="url(#terminal-1147005775-line-29)"> o </text><text class="terminal-1147005775-r8" x="268.4" y="727.6" textLength="73.2" clip-path="url(#terminal-1147005775-line-29)">shell </text><text class="terminal-1147005775-r14" x="341.6" y="727.6" textLength="36.6" clip-path="url(#terminal-1147005775-line-29)"> e </text><text class="terminal-1147005775-r8" x="378.2" y="727.6" textLength="61" clip-path="url(#terminal-1147005775-line-29)">edit </text><text class="terminal-1147005775-r14" x="439.2" y="727.6" textLength="36.6" clip-path="url(#terminal-1147005775-line-29)"> ? </text><text class="terminal-1147005775-r8" x="475.8" y="727.6" textLength="61" clip-path="url(#terminal-1147005775-line-29)">help </text>
    </g>
    </g>
</svg>
